<?xml version="1.0" encoding="UTF-8" standalone="no"?>
<!DOCTYPE svg PUBLIC "-//W3C//DTD SVG 1.1//EN"
 "http://www.w3.org/Graphics/SVG/1.1/DTD/svg11.dtd">
<!-- Generated by graphviz version 2.40.1 (20161225.0304)
 -->
<!-- Title: dependencies Pages: 1 -->
<svg width="504pt" height="211pt"
 viewBox="0.00 0.00 504.00 211.00" xmlns="http://www.w3.org/2000/svg" xmlns:xlink="http://www.w3.org/1999/xlink">
<g id="graph0" class="graph" transform="scale(1 1) rotate(0) translate(4 207)">
<title>dependencies</title>
<polygon fill="#ffffff" stroke="transparent" points="-4,4 -4,-207 500,-207 500,4 -4,4"/>
<text text-anchor="start" x="227.0091" y="-42.4" font-family="sans-serif" font-weight="bold" font-size="14.00" fill="#000000">Legend</text>
<polygon fill="#ffffb3" stroke="transparent" points="14,-10 14,-30 34,-30 34,-10 14,-10"/>
<text text-anchor="start" x="37.629" y="-15.4" font-family="sans-serif" font-size="14.00" fill="#000000"> &#160;Declarations</text>
<polygon fill="#8dd3c7" stroke="transparent" points="127,-10 127,-30 147,-30 147,-10 127,-10"/>
<text text-anchor="start" x="150.7251" y="-15.4" font-family="sans-serif" font-size="14.00" fill="#000000"> &#160;Module</text>
<polygon fill="#80b1d3" stroke="transparent" points="213,-10 213,-30 233,-30 233,-10 213,-10"/>
<text text-anchor="start" x="236.7812" y="-15.4" font-family="sans-serif" font-size="14.00" fill="#000000"> &#160;Bootstrap</text>
<polygon fill="#fdb462" stroke="transparent" points="310,-10 310,-30 330,-30 330,-10 310,-10"/>
<text text-anchor="start" x="333.6732" y="-15.4" font-family="sans-serif" font-size="14.00" fill="#000000"> &#160;Providers</text>
<polygon fill="#fb8072" stroke="transparent" points="406,-10 406,-30 426,-30 426,-10 406,-10"/>
<text text-anchor="start" x="429.7258" y="-15.4" font-family="sans-serif" font-size="14.00" fill="#000000"> &#160;Exports</text>
<g id="clust1" class="cluster">
<title>cluster_DealsModule</title>
<polygon fill="none" stroke="#000000" stroke-dasharray="1,5" points="22,-70 22,-195 474,-195 474,-70 22,-70"/>
</g>
<g id="clust2" class="cluster">
<title>cluster_DealsModule_declarations</title>
<polygon fill="none" stroke="#000000" points="152,-78 152,-130 466,-130 466,-78 152,-78"/>
</g>
<g id="clust5" class="cluster">
<title>cluster_DealsModule_imports</title>
<polygon fill="none" stroke="#000000" points="30,-78 30,-130 144,-130 144,-78 30,-78"/>
</g>
<!-- DealDialogComponent -->
<g id="node1" class="node">
<title>DealDialogComponent</title>
<polygon fill="#ffffb3" stroke="#000000" points="457.8613,-122 312.1387,-122 312.1387,-86 457.8613,-86 457.8613,-122"/>
<text text-anchor="middle" x="385" y="-99.8" font-family="Times,serif" font-size="14.00" fill="#000000">DealDialogComponent</text>
</g>
<!-- DealsModule -->
<g id="node3" class="node">
<title>DealsModule</title>
<polygon fill="#8dd3c7" stroke="#000000" points="272.9218,-187 269.9218,-191 248.9218,-191 245.9218,-187 181.0782,-187 181.0782,-151 272.9218,-151 272.9218,-187"/>
<text text-anchor="middle" x="227" y="-164.8" font-family="Times,serif" font-size="14.00" fill="#000000">DealsModule</text>
</g>
<!-- DealDialogComponent&#45;&gt;DealsModule -->
<g id="edge1" class="edge">
<title>DealDialogComponent&#45;&gt;DealsModule</title>
<path fill="none" stroke="#000000" d="M385,-122.1061C385,-141.3391 385,-169 385,-169 385,-169 283.1249,-169 283.1249,-169"/>
<polygon fill="#000000" stroke="#000000" points="283.1249,-165.5001 273.1249,-169 283.1248,-172.5001 283.1249,-165.5001"/>
</g>
<!-- NewDealComponent -->
<g id="node2" class="node">
<title>NewDealComponent</title>
<polygon fill="#ffffb3" stroke="#000000" points="294.1867,-122 159.8133,-122 159.8133,-86 294.1867,-86 294.1867,-122"/>
<text text-anchor="middle" x="227" y="-99.8" font-family="Times,serif" font-size="14.00" fill="#000000">NewDealComponent</text>
</g>
<!-- NewDealComponent&#45;&gt;DealsModule -->
<g id="edge2" class="edge">
<title>NewDealComponent&#45;&gt;DealsModule</title>
<path fill="none" stroke="#000000" d="M227,-122.1061C227,-122.1061 227,-140.991 227,-140.991"/>
<polygon fill="#000000" stroke="#000000" points="223.5001,-140.9909 227,-150.991 230.5001,-140.991 223.5001,-140.9909"/>
</g>
<!-- SharedModule -->
<g id="node4" class="node">
<title>SharedModule</title>
<polygon fill="#8dd3c7" stroke="#000000" points="136.4231,-122 133.4231,-126 112.4231,-126 109.4231,-122 37.5769,-122 37.5769,-86 136.4231,-86 136.4231,-122"/>
<text text-anchor="middle" x="87" y="-99.8" font-family="Times,serif" font-size="14.00" fill="#000000">SharedModule</text>
</g>
<!-- SharedModule&#45;&gt;DealsModule -->
<g id="edge3" class="edge">
<title>SharedModule&#45;&gt;DealsModule</title>
<path fill="none" stroke="#000000" d="M87,-122.1061C87,-141.3391 87,-169 87,-169 87,-169 171.1588,-169 171.1588,-169"/>
<polygon fill="#000000" stroke="#000000" points="171.1588,-172.5001 181.1588,-169 171.1587,-165.5001 171.1588,-172.5001"/>
</g>
</g>
</svg>
