<?xml version="1.0" encoding="UTF-8" standalone="no"?>
<!DOCTYPE svg PUBLIC "-//W3C//DTD SVG 1.1//EN"
 "http://www.w3.org/Graphics/SVG/1.1/DTD/svg11.dtd">
<!-- Generated by graphviz version 2.40.1 (20161225.0304)
 -->
<!-- Title: dependencies Pages: 1 -->
<svg width="597pt" height="284pt"
 viewBox="0.00 0.00 597.00 284.00" xmlns="http://www.w3.org/2000/svg" xmlns:xlink="http://www.w3.org/1999/xlink">
<g id="graph0" class="graph" transform="scale(1 1) rotate(0) translate(4 280)">
<title>dependencies</title>
<polygon fill="#ffffff" stroke="transparent" points="-4,4 -4,-280 593,-280 593,4 -4,4"/>
<text text-anchor="start" x="273.5091" y="-42.4" font-family="sans-serif" font-weight="bold" font-size="14.00" fill="#000000">Legend</text>
<polygon fill="#ffffb3" stroke="transparent" points="60.5,-10 60.5,-30 80.5,-30 80.5,-10 60.5,-10"/>
<text text-anchor="start" x="84.129" y="-15.4" font-family="sans-serif" font-size="14.00" fill="#000000"> &#160;Declarations</text>
<polygon fill="#8dd3c7" stroke="transparent" points="173.5,-10 173.5,-30 193.5,-30 193.5,-10 173.5,-10"/>
<text text-anchor="start" x="197.2251" y="-15.4" font-family="sans-serif" font-size="14.00" fill="#000000"> &#160;Module</text>
<polygon fill="#80b1d3" stroke="transparent" points="259.5,-10 259.5,-30 279.5,-30 279.5,-10 259.5,-10"/>
<text text-anchor="start" x="283.2812" y="-15.4" font-family="sans-serif" font-size="14.00" fill="#000000"> &#160;Bootstrap</text>
<polygon fill="#fdb462" stroke="transparent" points="356.5,-10 356.5,-30 376.5,-30 376.5,-10 356.5,-10"/>
<text text-anchor="start" x="380.1732" y="-15.4" font-family="sans-serif" font-size="14.00" fill="#000000"> &#160;Providers</text>
<polygon fill="#fb8072" stroke="transparent" points="452.5,-10 452.5,-30 472.5,-30 472.5,-10 452.5,-10"/>
<text text-anchor="start" x="476.2258" y="-15.4" font-family="sans-serif" font-size="14.00" fill="#000000"> &#160;Exports</text>
<g id="clust1" class="cluster">
<title>cluster_SharedModule</title>
<polygon fill="none" stroke="#000000" stroke-dasharray="1,5" points="8,-70 8,-268 581,-268 581,-70 8,-70"/>
</g>
<g id="clust2" class="cluster">
<title>cluster_SharedModule_declarations</title>
<polygon fill="none" stroke="#000000" points="21,-78 21,-130 567,-130 567,-78 21,-78"/>
</g>
<g id="clust7" class="cluster">
<title>cluster_SharedModule_exports</title>
<polygon fill="none" stroke="#000000" points="16,-208 16,-260 573,-260 573,-208 16,-208"/>
</g>
<!-- CrowdsButtonComponent -->
<g id="node1" class="node">
<title>CrowdsButtonComponent</title>
<polygon fill="#ffffb3" stroke="#000000" points="559.4986,-122 396.5014,-122 396.5014,-86 559.4986,-86 559.4986,-122"/>
<text text-anchor="middle" x="478" y="-99.8" font-family="Times,serif" font-size="14.00" fill="#000000">CrowdsButtonComponent</text>
</g>
<!-- SharedModule -->
<g id="node4" class="node">
<title>SharedModule</title>
<polygon fill="#8dd3c7" stroke="#000000" points="345.4231,-187 342.4231,-191 321.4231,-191 318.4231,-187 246.5769,-187 246.5769,-151 345.4231,-151 345.4231,-187"/>
<text text-anchor="middle" x="296" y="-164.8" font-family="Times,serif" font-size="14.00" fill="#000000">SharedModule</text>
</g>
<!-- CrowdsButtonComponent&#45;&gt;SharedModule -->
<g id="edge1" class="edge">
<title>CrowdsButtonComponent&#45;&gt;SharedModule</title>
<path fill="none" stroke="#000000" d="M505.9164,-122.0225C505.9164,-139.3734 505.9164,-163 505.9164,-163 505.9164,-163 355.2161,-163 355.2161,-163"/>
<polygon fill="#000000" stroke="#000000" points="355.2161,-159.5001 345.2161,-163 355.216,-166.5001 355.2161,-159.5001"/>
</g>
<!-- CrowdsHeaderComponent -->
<g id="node2" class="node">
<title>CrowdsHeaderComponent</title>
<polygon fill="#ffffb3" stroke="#000000" points="378.7921,-122 213.2079,-122 213.2079,-86 378.7921,-86 378.7921,-122"/>
<text text-anchor="middle" x="296" y="-99.8" font-family="Times,serif" font-size="14.00" fill="#000000">CrowdsHeaderComponent</text>
</g>
<!-- CrowdsHeaderComponent&#45;&gt;SharedModule -->
<g id="edge2" class="edge">
<title>CrowdsHeaderComponent&#45;&gt;SharedModule</title>
<path fill="none" stroke="#000000" d="M296,-122.1061C296,-122.1061 296,-140.991 296,-140.991"/>
<polygon fill="#000000" stroke="#000000" points="292.5001,-140.9909 296,-150.991 299.5001,-140.991 292.5001,-140.9909"/>
</g>
<!-- CrowdsNavbarComponent -->
<g id="node3" class="node">
<title>CrowdsNavbarComponent</title>
<polygon fill="#ffffb3" stroke="#000000" points="195.0772,-122 28.9228,-122 28.9228,-86 195.0772,-86 195.0772,-122"/>
<text text-anchor="middle" x="112" y="-99.8" font-family="Times,serif" font-size="14.00" fill="#000000">CrowdsNavbarComponent</text>
</g>
<!-- CrowdsNavbarComponent&#45;&gt;SharedModule -->
<g id="edge3" class="edge">
<title>CrowdsNavbarComponent&#45;&gt;SharedModule</title>
<path fill="none" stroke="#000000" d="M138.8462,-122.0225C138.8462,-139.3734 138.8462,-163 138.8462,-163 138.8462,-163 236.7067,-163 236.7067,-163"/>
<polygon fill="#000000" stroke="#000000" points="236.7068,-166.5001 246.7067,-163 236.7067,-159.5001 236.7068,-166.5001"/>
</g>
<!-- CrowdsButtonComponent  -->
<g id="node5" class="node">
<title>CrowdsButtonComponent </title>
<polygon fill="#fb8072" stroke="#000000" points="565.4993,-252 398.5007,-252 398.5007,-216 565.4993,-216 565.4993,-252"/>
<text text-anchor="middle" x="482" y="-229.8" font-family="Times,serif" font-size="14.00" fill="#000000">CrowdsButtonComponent </text>
</g>
<!-- SharedModule&#45;&gt;CrowdsButtonComponent  -->
<g id="edge4" class="edge">
<title>SharedModule&#45;&gt;CrowdsButtonComponent </title>
<path fill="none" stroke="#000000" stroke-dasharray="5,2" d="M345.4649,-175C391.2658,-175 452.3336,-175 452.3336,-175 452.3336,-175 452.3336,-205.9775 452.3336,-205.9775"/>
<polygon fill="#000000" stroke="#000000" points="448.8337,-205.9774 452.3336,-215.9775 455.8337,-205.9775 448.8337,-205.9774"/>
</g>
<!-- CrowdsHeaderComponent  -->
<g id="node6" class="node">
<title>CrowdsHeaderComponent </title>
<polygon fill="#fb8072" stroke="#000000" points="380.2919,-252 211.7081,-252 211.7081,-216 380.2919,-216 380.2919,-252"/>
<text text-anchor="middle" x="296" y="-229.8" font-family="Times,serif" font-size="14.00" fill="#000000">CrowdsHeaderComponent </text>
</g>
<!-- SharedModule&#45;&gt;CrowdsHeaderComponent  -->
<g id="edge5" class="edge">
<title>SharedModule&#45;&gt;CrowdsHeaderComponent </title>
<path fill="none" stroke="#000000" stroke-dasharray="5,2" d="M296,-187.1061C296,-187.1061 296,-205.991 296,-205.991"/>
<polygon fill="#000000" stroke="#000000" points="292.5001,-205.9909 296,-215.991 299.5001,-205.991 292.5001,-205.9909"/>
</g>
<!-- CrowdsNavbarComponent  -->
<g id="node7" class="node">
<title>CrowdsNavbarComponent </title>
<polygon fill="#fb8072" stroke="#000000" points="193.5777,-252 24.4223,-252 24.4223,-216 193.5777,-216 193.5777,-252"/>
<text text-anchor="middle" x="109" y="-229.8" font-family="Times,serif" font-size="14.00" fill="#000000">CrowdsNavbarComponent </text>
</g>
<!-- SharedModule&#45;&gt;CrowdsNavbarComponent  -->
<g id="edge6" class="edge">
<title>SharedModule&#45;&gt;CrowdsNavbarComponent </title>
<path fill="none" stroke="#000000" stroke-dasharray="5,2" d="M246.5405,-175C183.8678,-175 83.9038,-175 83.9038,-175 83.9038,-175 83.9038,-205.9775 83.9038,-205.9775"/>
<polygon fill="#000000" stroke="#000000" points="80.4039,-205.9774 83.9038,-215.9775 87.4039,-205.9775 80.4039,-205.9774"/>
</g>
</g>
</svg>
