<?xml version="1.0" encoding="UTF-8" standalone="no"?>
<!DOCTYPE svg PUBLIC "-//W3C//DTD SVG 1.1//EN"
 "http://www.w3.org/Graphics/SVG/1.1/DTD/svg11.dtd">
<!-- Generated by graphviz version 2.40.1 (20161225.0304)
 -->
<!-- Title: dependencies Pages: 1 -->
<svg width="1164pt" height="211pt"
 viewBox="0.00 0.00 1164.00 211.00" xmlns="http://www.w3.org/2000/svg" xmlns:xlink="http://www.w3.org/1999/xlink">
<g id="graph0" class="graph" transform="scale(1 1) rotate(0) translate(4 207)">
<title>dependencies</title>
<polygon fill="#ffffff" stroke="transparent" points="-4,4 -4,-207 1160,-207 1160,4 -4,4"/>
<text text-anchor="start" x="557.0091" y="-42.4" font-family="sans-serif" font-weight="bold" font-size="14.00" fill="#000000">Legend</text>
<polygon fill="#ffffb3" stroke="transparent" points="344,-10 344,-30 364,-30 364,-10 344,-10"/>
<text text-anchor="start" x="367.629" y="-15.4" font-family="sans-serif" font-size="14.00" fill="#000000"> &#160;Declarations</text>
<polygon fill="#8dd3c7" stroke="transparent" points="457,-10 457,-30 477,-30 477,-10 457,-10"/>
<text text-anchor="start" x="480.7251" y="-15.4" font-family="sans-serif" font-size="14.00" fill="#000000"> &#160;Module</text>
<polygon fill="#80b1d3" stroke="transparent" points="543,-10 543,-30 563,-30 563,-10 543,-10"/>
<text text-anchor="start" x="566.7812" y="-15.4" font-family="sans-serif" font-size="14.00" fill="#000000"> &#160;Bootstrap</text>
<polygon fill="#fdb462" stroke="transparent" points="640,-10 640,-30 660,-30 660,-10 640,-10"/>
<text text-anchor="start" x="663.6732" y="-15.4" font-family="sans-serif" font-size="14.00" fill="#000000"> &#160;Providers</text>
<polygon fill="#fb8072" stroke="transparent" points="736,-10 736,-30 756,-30 756,-10 736,-10"/>
<text text-anchor="start" x="759.7258" y="-15.4" font-family="sans-serif" font-size="14.00" fill="#000000"> &#160;Exports</text>
<g id="clust1" class="cluster">
<title>cluster_LocationModule</title>
<polygon fill="none" stroke="#000000" stroke-dasharray="1,5" points="8,-70 8,-195 1148,-195 1148,-70 8,-70"/>
</g>
<g id="clust2" class="cluster">
<title>cluster_LocationModule_declarations</title>
<polygon fill="none" stroke="#000000" points="310,-78 310,-130 1140,-130 1140,-78 310,-78"/>
</g>
<g id="clust8" class="cluster">
<title>cluster_LocationModule_imports</title>
<polygon fill="none" stroke="#000000" points="188,-78 188,-130 302,-130 302,-78 188,-78"/>
</g>
<g id="clust11" class="cluster">
<title>cluster_LocationModule_providers</title>
<polygon fill="none" stroke="#000000" points="16,-78 16,-130 180,-130 180,-78 16,-78"/>
</g>
<!-- LocationEditComponent -->
<g id="node1" class="node">
<title>LocationEditComponent</title>
<polygon fill="#ffffb3" stroke="#000000" points="1132.4298,-122 977.5702,-122 977.5702,-86 1132.4298,-86 1132.4298,-122"/>
<text text-anchor="middle" x="1055" y="-99.8" font-family="Times,serif" font-size="14.00" fill="#000000">LocationEditComponent</text>
</g>
<!-- LocationModule -->
<g id="node6" class="node">
<title>LocationModule</title>
<polygon fill="#8dd3c7" stroke="#000000" points="599.8132,-187 596.8132,-191 575.8132,-191 572.8132,-187 490.1868,-187 490.1868,-151 599.8132,-151 599.8132,-187"/>
<text text-anchor="middle" x="545" y="-164.8" font-family="Times,serif" font-size="14.00" fill="#000000">LocationModule</text>
</g>
<!-- LocationEditComponent&#45;&gt;LocationModule -->
<g id="edge1" class="edge">
<title>LocationEditComponent&#45;&gt;LocationModule</title>
<path fill="none" stroke="#000000" d="M1055,-122.2921C1055,-144.2057 1055,-178 1055,-178 1055,-178 610.0635,-178 610.0635,-178"/>
<polygon fill="#000000" stroke="#000000" points="610.0635,-174.5001 600.0635,-178 610.0635,-181.5001 610.0635,-174.5001"/>
</g>
<!-- LocationScreenComponent -->
<g id="node2" class="node">
<title>LocationScreenComponent</title>
<polygon fill="#ffffb3" stroke="#000000" points="959.6825,-122 790.3175,-122 790.3175,-86 959.6825,-86 959.6825,-122"/>
<text text-anchor="middle" x="875" y="-99.8" font-family="Times,serif" font-size="14.00" fill="#000000">LocationScreenComponent</text>
</g>
<!-- LocationScreenComponent&#45;&gt;LocationModule -->
<g id="edge2" class="edge">
<title>LocationScreenComponent&#45;&gt;LocationModule</title>
<path fill="none" stroke="#000000" d="M875,-122.1061C875,-141.3391 875,-169 875,-169 875,-169 609.8632,-169 609.8632,-169"/>
<polygon fill="#000000" stroke="#000000" points="609.8633,-165.5001 599.8632,-169 609.8632,-172.5001 609.8633,-165.5001"/>
</g>
<!-- LocationTabComponent -->
<g id="node3" class="node">
<title>LocationTabComponent</title>
<polygon fill="#ffffb3" stroke="#000000" points="772.3627,-122 619.6373,-122 619.6373,-86 772.3627,-86 772.3627,-122"/>
<text text-anchor="middle" x="696" y="-99.8" font-family="Times,serif" font-size="14.00" fill="#000000">LocationTabComponent</text>
</g>
<!-- LocationTabComponent&#45;&gt;LocationModule -->
<g id="edge3" class="edge">
<title>LocationTabComponent&#45;&gt;LocationModule</title>
<path fill="none" stroke="#000000" d="M696,-122.027C696,-138.3976 696,-160 696,-160 696,-160 609.9416,-160 609.9416,-160"/>
<polygon fill="#000000" stroke="#000000" points="609.9417,-156.5001 599.9416,-160 609.9416,-163.5001 609.9417,-156.5001"/>
</g>
<!-- MenuComponent -->
<g id="node4" class="node">
<title>MenuComponent</title>
<polygon fill="#ffffb3" stroke="#000000" points="601.9916,-122 488.0084,-122 488.0084,-86 601.9916,-86 601.9916,-122"/>
<text text-anchor="middle" x="545" y="-99.8" font-family="Times,serif" font-size="14.00" fill="#000000">MenuComponent</text>
</g>
<!-- MenuComponent&#45;&gt;LocationModule -->
<g id="edge4" class="edge">
<title>MenuComponent&#45;&gt;LocationModule</title>
<path fill="none" stroke="#000000" d="M545,-122.1061C545,-122.1061 545,-140.991 545,-140.991"/>
<polygon fill="#000000" stroke="#000000" points="541.5001,-140.9909 545,-150.991 548.5001,-140.991 541.5001,-140.9909"/>
</g>
<!-- MenuDialogComponent -->
<g id="node5" class="node">
<title>MenuDialogComponent</title>
<polygon fill="#ffffb3" stroke="#000000" points="470.094,-122 317.906,-122 317.906,-86 470.094,-86 470.094,-122"/>
<text text-anchor="middle" x="394" y="-99.8" font-family="Times,serif" font-size="14.00" fill="#000000">MenuDialogComponent</text>
</g>
<!-- MenuDialogComponent&#45;&gt;LocationModule -->
<g id="edge5" class="edge">
<title>MenuDialogComponent&#45;&gt;LocationModule</title>
<path fill="none" stroke="#000000" d="M394,-122.027C394,-138.3976 394,-160 394,-160 394,-160 480.0584,-160 480.0584,-160"/>
<polygon fill="#000000" stroke="#000000" points="480.0584,-163.5001 490.0584,-160 480.0583,-156.5001 480.0584,-163.5001"/>
</g>
<!-- SharedModule -->
<g id="node7" class="node">
<title>SharedModule</title>
<polygon fill="#8dd3c7" stroke="#000000" points="294.4231,-122 291.4231,-126 270.4231,-126 267.4231,-122 195.5769,-122 195.5769,-86 294.4231,-86 294.4231,-122"/>
<text text-anchor="middle" x="245" y="-99.8" font-family="Times,serif" font-size="14.00" fill="#000000">SharedModule</text>
</g>
<!-- SharedModule&#45;&gt;LocationModule -->
<g id="edge6" class="edge">
<title>SharedModule&#45;&gt;LocationModule</title>
<path fill="none" stroke="#000000" d="M245,-122.1061C245,-141.3391 245,-169 245,-169 245,-169 480.3242,-169 480.3242,-169"/>
<polygon fill="#000000" stroke="#000000" points="480.3242,-172.5001 490.3242,-169 480.3242,-165.5001 480.3242,-172.5001"/>
</g>
<!-- LocationService -->
<g id="node8" class="node">
<title>LocationService</title>
<ellipse fill="#fdb462" stroke="#000000" cx="98" cy="-104" rx="74.1354" ry="18"/>
<text text-anchor="middle" x="98" y="-99.8" font-family="Times,serif" font-size="14.00" fill="#000000">LocationService</text>
</g>
<!-- LocationService&#45;&gt;LocationModule -->
<g id="edge7" class="edge">
<title>LocationService&#45;&gt;LocationModule</title>
<path fill="none" stroke="#000000" d="M98,-122.2921C98,-144.2057 98,-178 98,-178 98,-178 480.189,-178 480.189,-178"/>
<polygon fill="#000000" stroke="#000000" points="480.1891,-181.5001 490.189,-178 480.189,-174.5001 480.1891,-181.5001"/>
</g>
</g>
</svg>
