<?xml version="1.0" encoding="UTF-8" standalone="no"?>
<!DOCTYPE svg PUBLIC "-//W3C//DTD SVG 1.1//EN"
 "http://www.w3.org/Graphics/SVG/1.1/DTD/svg11.dtd">
<!-- Generated by graphviz version 2.40.1 (20161225.0304)
 -->
<!-- Title: dependencies Pages: 1 -->
<svg width="937pt" height="284pt"
 viewBox="0.00 0.00 937.00 284.00" xmlns="http://www.w3.org/2000/svg" xmlns:xlink="http://www.w3.org/1999/xlink">
<g id="graph0" class="graph" transform="scale(1 1) rotate(0) translate(4 280)">
<title>dependencies</title>
<polygon fill="#ffffff" stroke="transparent" points="-4,4 -4,-280 933,-280 933,4 -4,4"/>
<text text-anchor="start" x="443.5091" y="-42.4" font-family="sans-serif" font-weight="bold" font-size="14.00" fill="#000000">Legend</text>
<polygon fill="#ffffb3" stroke="transparent" points="230.5,-10 230.5,-30 250.5,-30 250.5,-10 230.5,-10"/>
<text text-anchor="start" x="254.129" y="-15.4" font-family="sans-serif" font-size="14.00" fill="#000000"> &#160;Declarations</text>
<polygon fill="#8dd3c7" stroke="transparent" points="343.5,-10 343.5,-30 363.5,-30 363.5,-10 343.5,-10"/>
<text text-anchor="start" x="367.2251" y="-15.4" font-family="sans-serif" font-size="14.00" fill="#000000"> &#160;Module</text>
<polygon fill="#80b1d3" stroke="transparent" points="429.5,-10 429.5,-30 449.5,-30 449.5,-10 429.5,-10"/>
<text text-anchor="start" x="453.2812" y="-15.4" font-family="sans-serif" font-size="14.00" fill="#000000"> &#160;Bootstrap</text>
<polygon fill="#fdb462" stroke="transparent" points="526.5,-10 526.5,-30 546.5,-30 546.5,-10 526.5,-10"/>
<text text-anchor="start" x="550.1732" y="-15.4" font-family="sans-serif" font-size="14.00" fill="#000000"> &#160;Providers</text>
<polygon fill="#fb8072" stroke="transparent" points="622.5,-10 622.5,-30 642.5,-30 642.5,-10 622.5,-10"/>
<text text-anchor="start" x="646.2258" y="-15.4" font-family="sans-serif" font-size="14.00" fill="#000000"> &#160;Exports</text>
<g id="clust1" class="cluster">
<title>cluster_AppModule</title>
<polygon fill="none" stroke="#000000" stroke-dasharray="1,5" points="8,-70 8,-268 921,-268 921,-70 8,-70"/>
</g>
<g id="clust2" class="cluster">
<title>cluster_AppModule_declarations</title>
<polygon fill="none" stroke="#000000" points="659,-78 659,-130 913,-130 913,-78 659,-78"/>
</g>
<g id="clust5" class="cluster">
<title>cluster_AppModule_imports</title>
<polygon fill="none" stroke="#000000" points="16,-78 16,-130 651,-130 651,-78 16,-78"/>
</g>
<g id="clust7" class="cluster">
<title>cluster_AppModule_bootstrap</title>
<polygon fill="none" stroke="#000000" points="375,-208 375,-260 499,-260 499,-208 375,-208"/>
</g>
<!-- AppComponent -->
<g id="node1" class="node">
<title>AppComponent</title>
<polygon fill="#ffffb3" stroke="#000000" points="904.9399,-122 799.0601,-122 799.0601,-86 904.9399,-86 904.9399,-122"/>
<text text-anchor="middle" x="852" y="-99.8" font-family="Times,serif" font-size="14.00" fill="#000000">AppComponent</text>
</g>
<!-- AppModule -->
<g id="node3" class="node">
<title>AppModule</title>
<polygon fill="#8dd3c7" stroke="#000000" points="478.6571,-187 475.6571,-191 454.6571,-191 451.6571,-187 395.3429,-187 395.3429,-151 478.6571,-151 478.6571,-187"/>
<text text-anchor="middle" x="437" y="-164.8" font-family="Times,serif" font-size="14.00" fill="#000000">AppModule</text>
</g>
<!-- AppComponent&#45;&gt;AppModule -->
<g id="edge1" class="edge">
<title>AppComponent&#45;&gt;AppModule</title>
<path fill="none" stroke="#000000" d="M852,-122.2921C852,-144.2057 852,-178 852,-178 852,-178 488.6919,-178 488.6919,-178"/>
<polygon fill="#000000" stroke="#000000" points="488.6919,-174.5001 478.6919,-178 488.6919,-181.5001 488.6919,-174.5001"/>
</g>
<!-- LoginComponent -->
<g id="node2" class="node">
<title>LoginComponent</title>
<polygon fill="#ffffb3" stroke="#000000" points="781.2758,-122 666.7242,-122 666.7242,-86 781.2758,-86 781.2758,-122"/>
<text text-anchor="middle" x="724" y="-99.8" font-family="Times,serif" font-size="14.00" fill="#000000">LoginComponent</text>
</g>
<!-- LoginComponent&#45;&gt;AppModule -->
<g id="edge2" class="edge">
<title>LoginComponent&#45;&gt;AppModule</title>
<path fill="none" stroke="#000000" d="M724,-122.1061C724,-141.3391 724,-169 724,-169 724,-169 488.7323,-169 488.7323,-169"/>
<polygon fill="#000000" stroke="#000000" points="488.7323,-165.5001 478.7323,-169 488.7322,-172.5001 488.7323,-165.5001"/>
</g>
<!-- AppComponent  -->
<g id="node9" class="node">
<title>AppComponent </title>
<polygon fill="#80b1d3" stroke="#000000" points="491.439,-252 382.561,-252 382.561,-216 491.439,-216 491.439,-252"/>
<text text-anchor="middle" x="437" y="-229.8" font-family="Times,serif" font-size="14.00" fill="#000000">AppComponent </text>
</g>
<!-- AppModule&#45;&gt;AppComponent  -->
<g id="edge8" class="edge">
<title>AppModule&#45;&gt;AppComponent </title>
<path fill="none" stroke="#000000" stroke-dasharray="1,5" d="M437,-187.1061C437,-187.1061 437,-205.991 437,-205.991"/>
<polygon fill="#000000" stroke="#000000" points="433.5001,-205.9909 437,-215.991 440.5001,-205.991 433.5001,-205.9909"/>
</g>
<!-- AppRoutingModule -->
<g id="node4" class="node">
<title>AppRoutingModule</title>
<polygon fill="#8dd3c7" stroke="#000000" points="643.2744,-122 640.2744,-126 619.2744,-126 616.2744,-122 514.7256,-122 514.7256,-86 643.2744,-86 643.2744,-122"/>
<text text-anchor="middle" x="579" y="-99.8" font-family="Times,serif" font-size="14.00" fill="#000000">AppRoutingModule</text>
</g>
<!-- AppRoutingModule&#45;&gt;AppModule -->
<g id="edge3" class="edge">
<title>AppRoutingModule&#45;&gt;AppModule</title>
<path fill="none" stroke="#000000" d="M579,-122.027C579,-138.3976 579,-160 579,-160 579,-160 488.8367,-160 488.8367,-160"/>
<polygon fill="#000000" stroke="#000000" points="488.8367,-156.5001 478.8367,-160 488.8366,-163.5001 488.8367,-156.5001"/>
</g>
<!-- DashboardModule -->
<g id="node5" class="node">
<title>DashboardModule</title>
<polygon fill="#8dd3c7" stroke="#000000" points="497.191,-122 494.191,-126 473.191,-126 470.191,-122 376.809,-122 376.809,-86 497.191,-86 497.191,-122"/>
<text text-anchor="middle" x="437" y="-99.8" font-family="Times,serif" font-size="14.00" fill="#000000">DashboardModule</text>
</g>
<!-- DashboardModule&#45;&gt;AppModule -->
<g id="edge4" class="edge">
<title>DashboardModule&#45;&gt;AppModule</title>
<path fill="none" stroke="#000000" d="M437,-122.1061C437,-122.1061 437,-140.991 437,-140.991"/>
<polygon fill="#000000" stroke="#000000" points="433.5001,-140.9909 437,-150.991 440.5001,-140.991 433.5001,-140.9909"/>
</g>
<!-- DealsModule -->
<g id="node6" class="node">
<title>DealsModule</title>
<polygon fill="#8dd3c7" stroke="#000000" points="358.9218,-122 355.9218,-126 334.9218,-126 331.9218,-122 267.0782,-122 267.0782,-86 358.9218,-86 358.9218,-122"/>
<text text-anchor="middle" x="313" y="-99.8" font-family="Times,serif" font-size="14.00" fill="#000000">DealsModule</text>
</g>
<!-- DealsModule&#45;&gt;AppModule -->
<g id="edge5" class="edge">
<title>DealsModule&#45;&gt;AppModule</title>
<path fill="none" stroke="#000000" d="M313,-122.027C313,-138.3976 313,-160 313,-160 313,-160 385.0193,-160 385.0193,-160"/>
<polygon fill="#000000" stroke="#000000" points="385.0193,-163.5001 395.0193,-160 385.0192,-156.5001 385.0193,-163.5001"/>
</g>
<!-- LocationModule -->
<g id="node7" class="node">
<title>LocationModule</title>
<polygon fill="#8dd3c7" stroke="#000000" points="249.8132,-122 246.8132,-126 225.8132,-126 222.8132,-122 140.1868,-122 140.1868,-86 249.8132,-86 249.8132,-122"/>
<text text-anchor="middle" x="195" y="-99.8" font-family="Times,serif" font-size="14.00" fill="#000000">LocationModule</text>
</g>
<!-- LocationModule&#45;&gt;AppModule -->
<g id="edge6" class="edge">
<title>LocationModule&#45;&gt;AppModule</title>
<path fill="none" stroke="#000000" d="M195,-122.1061C195,-141.3391 195,-169 195,-169 195,-169 385.1231,-169 385.1231,-169"/>
<polygon fill="#000000" stroke="#000000" points="385.1231,-172.5001 395.1231,-169 385.1231,-165.5001 385.1231,-172.5001"/>
</g>
<!-- SharedModule -->
<g id="node8" class="node">
<title>SharedModule</title>
<polygon fill="#8dd3c7" stroke="#000000" points="122.4231,-122 119.4231,-126 98.4231,-126 95.4231,-122 23.5769,-122 23.5769,-86 122.4231,-86 122.4231,-122"/>
<text text-anchor="middle" x="73" y="-99.8" font-family="Times,serif" font-size="14.00" fill="#000000">SharedModule</text>
</g>
<!-- SharedModule&#45;&gt;AppModule -->
<g id="edge7" class="edge">
<title>SharedModule&#45;&gt;AppModule</title>
<path fill="none" stroke="#000000" d="M73,-122.2921C73,-144.2057 73,-178 73,-178 73,-178 385.2446,-178 385.2446,-178"/>
<polygon fill="#000000" stroke="#000000" points="385.2446,-181.5001 395.2446,-178 385.2445,-174.5001 385.2446,-181.5001"/>
</g>
</g>
</svg>
