<?xml version="1.0" encoding="UTF-8" standalone="no"?>
<!DOCTYPE svg PUBLIC "-//W3C//DTD SVG 1.1//EN"
 "http://www.w3.org/Graphics/SVG/1.1/DTD/svg11.dtd">
<!-- Generated by graphviz version 2.40.1 (20161225.0304)
 -->
<!-- Title: dependencies Pages: 1 -->
<svg width="6227pt" height="360pt"
 viewBox="0.00 0.00 6227.00 360.00" xmlns="http://www.w3.org/2000/svg" xmlns:xlink="http://www.w3.org/1999/xlink">
<g id="graph0" class="graph" transform="scale(1 1) rotate(0) translate(4 356)">
<title>dependencies</title>
<polygon fill="#ffffff" stroke="transparent" points="-4,4 -4,-356 6223,-356 6223,4 -4,4"/>
<text text-anchor="start" x="3088.5091" y="-42.4" font-family="sans-serif" font-weight="bold" font-size="14.00" fill="#000000">Legend</text>
<polygon fill="#ffffb3" stroke="transparent" points="2875.5,-10 2875.5,-30 2895.5,-30 2895.5,-10 2875.5,-10"/>
<text text-anchor="start" x="2899.129" y="-15.4" font-family="sans-serif" font-size="14.00" fill="#000000"> &#160;Declarations</text>
<polygon fill="#8dd3c7" stroke="transparent" points="2988.5,-10 2988.5,-30 3008.5,-30 3008.5,-10 2988.5,-10"/>
<text text-anchor="start" x="3012.2251" y="-15.4" font-family="sans-serif" font-size="14.00" fill="#000000"> &#160;Module</text>
<polygon fill="#80b1d3" stroke="transparent" points="3074.5,-10 3074.5,-30 3094.5,-30 3094.5,-10 3074.5,-10"/>
<text text-anchor="start" x="3098.2812" y="-15.4" font-family="sans-serif" font-size="14.00" fill="#000000"> &#160;Bootstrap</text>
<polygon fill="#fdb462" stroke="transparent" points="3171.5,-10 3171.5,-30 3191.5,-30 3191.5,-10 3171.5,-10"/>
<text text-anchor="start" x="3195.1732" y="-15.4" font-family="sans-serif" font-size="14.00" fill="#000000"> &#160;Providers</text>
<polygon fill="#fb8072" stroke="transparent" points="3267.5,-10 3267.5,-30 3287.5,-30 3287.5,-10 3267.5,-10"/>
<text text-anchor="start" x="3291.2258" y="-15.4" font-family="sans-serif" font-size="14.00" fill="#000000"> &#160;Exports</text>
<g id="clust1" class="cluster">
<title>cluster_AppModule</title>
<polygon fill="none" stroke="#000000" stroke-dasharray="1,5" points="3026,-70 3026,-344 3711,-344 3711,-70 3026,-70"/>
</g>
<g id="clust2" class="cluster">
<title>cluster_AppModule_declarations</title>
<polygon fill="none" stroke="#000000" points="3449,-154 3449,-206 3703,-206 3703,-154 3449,-154"/>
</g>
<g id="clust5" class="cluster">
<title>cluster_AppModule_imports</title>
<polygon fill="none" stroke="#000000" points="3034,-78 3034,-206 3407,-206 3407,-78 3034,-78"/>
</g>
<g id="clust7" class="cluster">
<title>cluster_AppModule_bootstrap</title>
<polygon fill="none" stroke="#000000" points="3356,-284 3356,-336 3480,-336 3480,-284 3356,-284"/>
</g>
<g id="clust15" class="cluster">
<title>cluster_DashboardModule</title>
<polygon fill="none" stroke="#000000" stroke-dasharray="1,5" points="8,-70 8,-138 1654,-138 1654,-70 8,-70"/>
</g>
<g id="clust16" class="cluster">
<title>cluster_DashboardModule_declarations</title>
<polygon fill="none" stroke="#000000" points="16,-78 16,-130 1646,-130 1646,-78 16,-78"/>
</g>
<g id="clust30" class="cluster">
<title>cluster_DealsModule</title>
<polygon fill="none" stroke="#000000" stroke-dasharray="1,5" points="1662,-70 1662,-138 1992,-138 1992,-70 1662,-70"/>
</g>
<g id="clust31" class="cluster">
<title>cluster_DealsModule_declarations</title>
<polygon fill="none" stroke="#000000" points="1670,-78 1670,-130 1984,-130 1984,-78 1670,-78"/>
</g>
<g id="clust38" class="cluster">
<title>cluster_LocationModule</title>
<polygon fill="none" stroke="#000000" stroke-dasharray="1,5" points="2000,-70 2000,-138 3018,-138 3018,-70 2000,-70"/>
</g>
<g id="clust39" class="cluster">
<title>cluster_LocationModule_declarations</title>
<polygon fill="none" stroke="#000000" points="2180,-78 2180,-130 3010,-130 3010,-78 2180,-78"/>
</g>
<g id="clust48" class="cluster">
<title>cluster_LocationModule_providers</title>
<polygon fill="none" stroke="#000000" points="2008,-78 2008,-130 2172,-130 2172,-78 2008,-78"/>
</g>
<g id="clust49" class="cluster">
<title>cluster_SharedModule</title>
<polygon fill="none" stroke="#000000" stroke-dasharray="1,5" points="3719,-146 3719,-214 4847,-214 4847,-146 3719,-146"/>
</g>
<g id="clust50" class="cluster">
<title>cluster_SharedModule_declarations</title>
<polygon fill="none" stroke="#000000" points="4292,-154 4292,-206 4839,-206 4839,-154 4292,-154"/>
</g>
<g id="clust55" class="cluster">
<title>cluster_SharedModule_exports</title>
<polygon fill="none" stroke="#000000" points="3727,-154 3727,-206 4284,-206 4284,-154 3727,-154"/>
</g>
<g id="clust58" class="cluster">
<title>cluster_SignupModule</title>
<polygon fill="none" stroke="#000000" stroke-dasharray="1,5" points="4855,-70 4855,-206 6211,-206 6211,-70 4855,-70"/>
</g>
<g id="clust59" class="cluster">
<title>cluster_SignupModule_declarations</title>
<polygon fill="none" stroke="#000000" points="5189,-78 5189,-130 6203,-130 6203,-78 5189,-78"/>
</g>
<g id="clust66" class="cluster">
<title>cluster_SignupModule_imports</title>
<polygon fill="none" stroke="#000000" points="5021,-78 5021,-130 5181,-130 5181,-78 5021,-78"/>
</g>
<g id="clust69" class="cluster">
<title>cluster_SignupModule_providers</title>
<polygon fill="none" stroke="#000000" points="4863,-78 4863,-130 5013,-130 5013,-78 4863,-78"/>
</g>
<!-- AppComponent -->
<g id="node1" class="node">
<title>AppComponent</title>
<polygon fill="#ffffb3" stroke="#000000" points="3694.9399,-198 3589.0601,-198 3589.0601,-162 3694.9399,-162 3694.9399,-198"/>
<text text-anchor="middle" x="3642" y="-175.8" font-family="Times,serif" font-size="14.00" fill="#000000">AppComponent</text>
</g>
<!-- AppModule -->
<g id="node3" class="node">
<title>AppModule</title>
<polygon fill="#8dd3c7" stroke="#000000" points="3459.6571,-263 3456.6571,-267 3435.6571,-267 3432.6571,-263 3376.3429,-263 3376.3429,-227 3459.6571,-227 3459.6571,-263"/>
<text text-anchor="middle" x="3418" y="-240.8" font-family="Times,serif" font-size="14.00" fill="#000000">AppModule</text>
</g>
<!-- AppComponent&#45;&gt;AppModule -->
<g id="edge1" class="edge">
<title>AppComponent&#45;&gt;AppModule</title>
<path fill="none" stroke="#000000" d="M3642,-198.2843C3642,-219.3211 3642,-251 3642,-251 3642,-251 3469.8699,-251 3469.8699,-251"/>
<polygon fill="#000000" stroke="#000000" points="3469.87,-247.5001 3459.8699,-251 3469.8699,-254.5001 3469.87,-247.5001"/>
</g>
<!-- LoginComponent -->
<g id="node2" class="node">
<title>LoginComponent</title>
<polygon fill="#ffffb3" stroke="#000000" points="3571.2758,-198 3456.7242,-198 3456.7242,-162 3571.2758,-162 3571.2758,-198"/>
<text text-anchor="middle" x="3514" y="-175.8" font-family="Times,serif" font-size="14.00" fill="#000000">LoginComponent</text>
</g>
<!-- LoginComponent&#45;&gt;AppModule -->
<g id="edge2" class="edge">
<title>LoginComponent&#45;&gt;AppModule</title>
<path fill="none" stroke="#000000" d="M3466.1489,-198.0225C3466.1489,-215.3734 3466.1489,-239 3466.1489,-239 3466.1489,-239 3465.5194,-239 3465.5194,-239"/>
<polygon fill="#000000" stroke="#000000" points="3469.8543,-235.5002 3459.8542,-239 3469.8542,-242.5002 3469.8543,-235.5002"/>
</g>
<!-- AppComponent  -->
<g id="node9" class="node">
<title>AppComponent </title>
<polygon fill="#80b1d3" stroke="#000000" points="3472.439,-328 3363.561,-328 3363.561,-292 3472.439,-292 3472.439,-328"/>
<text text-anchor="middle" x="3418" y="-305.8" font-family="Times,serif" font-size="14.00" fill="#000000">AppComponent </text>
</g>
<!-- AppModule&#45;&gt;AppComponent  -->
<g id="edge8" class="edge">
<title>AppModule&#45;&gt;AppComponent </title>
<path fill="none" stroke="#000000" stroke-dasharray="1,5" d="M3418,-263.1061C3418,-263.1061 3418,-281.991 3418,-281.991"/>
<polygon fill="#000000" stroke="#000000" points="3414.5001,-281.9909 3418,-291.991 3421.5001,-281.991 3414.5001,-281.9909"/>
</g>
<!-- AppRoutingModule -->
<g id="node4" class="node">
<title>AppRoutingModule</title>
<polygon fill="#8dd3c7" stroke="#000000" points="3282.2744,-122 3279.2744,-126 3258.2744,-126 3255.2744,-122 3153.7256,-122 3153.7256,-86 3282.2744,-86 3282.2744,-122"/>
<text text-anchor="middle" x="3218" y="-99.8" font-family="Times,serif" font-size="14.00" fill="#000000">AppRoutingModule</text>
</g>
<!-- AppRoutingModule&#45;&gt;AppModule -->
<g id="edge3" class="edge">
<title>AppRoutingModule&#45;&gt;AppModule</title>
<path fill="none" stroke="#000000" d="M3277.0488,-122.0773C3277.0488,-158.2287 3277.0488,-236 3277.0488,-236 3277.0488,-236 3366.0916,-236 3366.0916,-236"/>
<polygon fill="#000000" stroke="#000000" points="3366.0916,-239.5001 3376.0916,-236 3366.0916,-232.5001 3366.0916,-239.5001"/>
</g>
<!-- DashboardModule -->
<g id="node5" class="node">
<title>DashboardModule</title>
<polygon fill="#8dd3c7" stroke="#000000" points="3162.191,-198 3159.191,-202 3138.191,-202 3135.191,-198 3041.809,-198 3041.809,-162 3162.191,-162 3162.191,-198"/>
<text text-anchor="middle" x="3102" y="-175.8" font-family="Times,serif" font-size="14.00" fill="#000000">DashboardModule</text>
</g>
<!-- DashboardModule&#45;&gt;AppModule -->
<g id="edge4" class="edge">
<title>DashboardModule&#45;&gt;AppModule</title>
<path fill="none" stroke="#000000" d="M3102,-198.2921C3102,-220.2057 3102,-254 3102,-254 3102,-254 3366.0376,-254 3366.0376,-254"/>
<polygon fill="#000000" stroke="#000000" points="3366.0377,-257.5001 3376.0376,-254 3366.0376,-250.5001 3366.0377,-257.5001"/>
</g>
<!-- DealsModule -->
<g id="node6" class="node">
<title>DealsModule</title>
<polygon fill="#8dd3c7" stroke="#000000" points="3271.9218,-198 3268.9218,-202 3247.9218,-202 3244.9218,-198 3180.0782,-198 3180.0782,-162 3271.9218,-162 3271.9218,-198"/>
<text text-anchor="middle" x="3226" y="-175.8" font-family="Times,serif" font-size="14.00" fill="#000000">DealsModule</text>
</g>
<!-- DealsModule&#45;&gt;AppModule -->
<g id="edge5" class="edge">
<title>DealsModule&#45;&gt;AppModule</title>
<path fill="none" stroke="#000000" d="M3226,-198.1061C3226,-217.3391 3226,-245 3226,-245 3226,-245 3366.3389,-245 3366.3389,-245"/>
<polygon fill="#000000" stroke="#000000" points="3366.3389,-248.5001 3376.3389,-245 3366.3388,-241.5001 3366.3389,-248.5001"/>
</g>
<!-- LocationModule -->
<g id="node7" class="node">
<title>LocationModule</title>
<polygon fill="#8dd3c7" stroke="#000000" points="3398.8132,-198 3395.8132,-202 3374.8132,-202 3371.8132,-198 3289.1868,-198 3289.1868,-162 3398.8132,-162 3398.8132,-198"/>
<text text-anchor="middle" x="3344" y="-175.8" font-family="Times,serif" font-size="14.00" fill="#000000">LocationModule</text>
</g>
<!-- LocationModule&#45;&gt;AppModule -->
<g id="edge6" class="edge">
<title>LocationModule&#45;&gt;AppModule</title>
<path fill="none" stroke="#000000" d="M3387.4141,-198.1061C3387.4141,-198.1061 3387.4141,-216.991 3387.4141,-216.991"/>
<polygon fill="#000000" stroke="#000000" points="3383.9142,-216.9909 3387.4141,-226.991 3390.9142,-216.991 3383.9142,-216.9909"/>
</g>
<!-- SharedModule -->
<g id="node8" class="node">
<title>SharedModule</title>
<polygon fill="#8dd3c7" stroke="#000000" points="3399.4231,-122 3396.4231,-126 3375.4231,-126 3372.4231,-122 3300.5769,-122 3300.5769,-86 3399.4231,-86 3399.4231,-122"/>
<text text-anchor="middle" x="3350" y="-99.8" font-family="Times,serif" font-size="14.00" fill="#000000">SharedModule</text>
</g>
<!-- SharedModule&#45;&gt;AppModule -->
<g id="edge7" class="edge">
<title>SharedModule&#45;&gt;AppModule</title>
<path fill="none" stroke="#000000" d="M3399.3426,-118C3414.8047,-118 3427.9117,-118 3427.9117,-118 3427.9117,-118 3427.9117,-216.804 3427.9117,-216.804"/>
<polygon fill="#000000" stroke="#000000" points="3424.4117,-216.804 3427.9117,-226.804 3431.4117,-216.804 3424.4117,-216.804"/>
</g>
<!-- SharedModule&#45;&gt;DashboardModule -->
<g id="edge18" class="edge">
<title>SharedModule&#45;&gt;DashboardModule</title>
<path fill="none" stroke="#000000" d="M3356.7132,-122.1243C3356.7132,-136.7832 3356.7132,-155 3356.7132,-155 3356.7132,-155 3157.8542,-155 3157.8542,-155 3157.8542,-155 3157.8542,-155.6831 3157.8542,-155.6831"/>
<polygon fill="#000000" stroke="#000000" points="3154.3543,-151.8313 3157.8542,-161.8314 3161.3543,-151.8314 3154.3543,-151.8313"/>
</g>
<!-- SharedModule&#45;&gt;DealsModule -->
<g id="edge21" class="edge">
<title>SharedModule&#45;&gt;DealsModule</title>
<path fill="none" stroke="#000000" d="M3370.6943,-122.0091C3370.6943,-138.0494 3370.6943,-159 3370.6943,-159 3370.6943,-159 3248.8552,-159 3248.8552,-159 3248.8552,-159 3248.8552,-159.292 3248.8552,-159.292"/>
<polygon fill="#000000" stroke="#000000" points="3245.3556,-151.9198 3248.8552,-161.92 3252.3556,-151.9201 3245.3556,-151.9198"/>
</g>
<!-- SharedModule&#45;&gt;LocationModule -->
<g id="edge27" class="edge">
<title>SharedModule&#45;&gt;LocationModule</title>
<path fill="none" stroke="#000000" d="M3384.6753,-122.0109C3384.6753,-122.0109 3384.6753,-151.855 3384.6753,-151.855"/>
<polygon fill="#000000" stroke="#000000" points="3381.1754,-151.8549 3384.6753,-161.855 3388.1754,-151.855 3381.1754,-151.8549"/>
</g>
<!-- CrowdsButtonComponent  -->
<g id="node30" class="node">
<title>CrowdsButtonComponent </title>
<polygon fill="#fb8072" stroke="#000000" points="4088.4993,-198 3921.5007,-198 3921.5007,-162 4088.4993,-162 4088.4993,-198"/>
<text text-anchor="middle" x="4005" y="-175.8" font-family="Times,serif" font-size="14.00" fill="#000000">CrowdsButtonComponent </text>
</g>
<!-- SharedModule&#45;&gt;CrowdsButtonComponent  -->
<g id="edge32" class="edge">
<title>SharedModule&#45;&gt;CrowdsButtonComponent </title>
<path fill="none" stroke="#000000" stroke-dasharray="5,2" d="M3399.2315,-110C3551.5592,-110 4005,-110 4005,-110 4005,-110 4005,-151.9733 4005,-151.9733"/>
<polygon fill="#000000" stroke="#000000" points="4001.5001,-151.9732 4005,-161.9733 4008.5001,-151.9733 4001.5001,-151.9732"/>
</g>
<!-- CrowdsHeaderComponent  -->
<g id="node31" class="node">
<title>CrowdsHeaderComponent </title>
<polygon fill="#fb8072" stroke="#000000" points="3903.2919,-198 3734.7081,-198 3734.7081,-162 3903.2919,-162 3903.2919,-198"/>
<text text-anchor="middle" x="3819" y="-175.8" font-family="Times,serif" font-size="14.00" fill="#000000">CrowdsHeaderComponent </text>
</g>
<!-- SharedModule&#45;&gt;CrowdsHeaderComponent  -->
<g id="edge33" class="edge">
<title>SharedModule&#45;&gt;CrowdsHeaderComponent </title>
<path fill="none" stroke="#000000" stroke-dasharray="5,2" d="M3399.3048,-114C3519.7187,-114 3819,-114 3819,-114 3819,-114 3819,-151.9652 3819,-151.9652"/>
<polygon fill="#000000" stroke="#000000" points="3815.5001,-151.9652 3819,-161.9652 3822.5001,-151.9652 3815.5001,-151.9652"/>
</g>
<!-- CrowdsNavbarComponent  -->
<g id="node32" class="node">
<title>CrowdsNavbarComponent </title>
<polygon fill="#fb8072" stroke="#000000" points="4275.5777,-198 4106.4223,-198 4106.4223,-162 4275.5777,-162 4275.5777,-198"/>
<text text-anchor="middle" x="4191" y="-175.8" font-family="Times,serif" font-size="14.00" fill="#000000">CrowdsNavbarComponent </text>
</g>
<!-- SharedModule&#45;&gt;CrowdsNavbarComponent  -->
<g id="edge34" class="edge">
<title>SharedModule&#45;&gt;CrowdsNavbarComponent </title>
<path fill="none" stroke="#000000" stroke-dasharray="5,2" d="M3399.4686,-106C3579.742,-106 4191,-106 4191,-106 4191,-106 4191,-151.7079 4191,-151.7079"/>
<polygon fill="#000000" stroke="#000000" points="4187.5001,-151.7078 4191,-161.7079 4194.5001,-151.7079 4187.5001,-151.7078"/>
</g>
<!-- SignupModule -->
<g id="node39" class="node">
<title>SignupModule</title>
<polygon fill="#8dd3c7" stroke="#000000" points="5481.7233,-198 5478.7233,-202 5457.7233,-202 5454.7233,-198 5382.2767,-198 5382.2767,-162 5481.7233,-162 5481.7233,-198"/>
<text text-anchor="middle" x="5432" y="-175.8" font-family="Times,serif" font-size="14.00" fill="#000000">SignupModule</text>
</g>
<!-- SharedModule&#45;&gt;SignupModule -->
<g id="edge41" class="edge">
<title>SharedModule&#45;&gt;SignupModule</title>
<path fill="none" stroke="#000000" d="M3399.5082,-90C3659.0487,-90 4850.8404,-90 4850.8404,-90 4850.8404,-90 4850.8404,-191 4850.8404,-191 4850.8404,-191 5372.1994,-191 5372.1994,-191"/>
<polygon fill="#000000" stroke="#000000" points="5372.1995,-194.5001 5382.1994,-191 5372.1994,-187.5001 5372.1995,-194.5001"/>
</g>
<!-- AgeDemographicsComponent -->
<g id="node10" class="node">
<title>AgeDemographicsComponent</title>
<polygon fill="#ffffb3" stroke="#000000" points="1638.2906,-122 1451.7094,-122 1451.7094,-86 1638.2906,-86 1638.2906,-122"/>
<text text-anchor="middle" x="1545" y="-99.8" font-family="Times,serif" font-size="14.00" fill="#000000">AgeDemographicsComponent</text>
</g>
<!-- AgeDemographicsComponent&#45;&gt;DashboardModule -->
<g id="edge9" class="edge">
<title>AgeDemographicsComponent&#45;&gt;DashboardModule</title>
<path fill="none" stroke="#000000" d="M1545,-122.2667C1545,-140.5552 1545,-166 1545,-166 1545,-166 3031.4416,-166 3031.4416,-166"/>
<polygon fill="#000000" stroke="#000000" points="3031.4417,-169.5001 3041.4416,-166 3031.4416,-162.5001 3031.4417,-169.5001"/>
</g>
<!-- CrowdSizeComponent -->
<g id="node11" class="node">
<title>CrowdSizeComponent</title>
<polygon fill="#ffffb3" stroke="#000000" points="1433.5393,-122 1290.4607,-122 1290.4607,-86 1433.5393,-86 1433.5393,-122"/>
<text text-anchor="middle" x="1362" y="-99.8" font-family="Times,serif" font-size="14.00" fill="#000000">CrowdSizeComponent</text>
</g>
<!-- CrowdSizeComponent&#45;&gt;DashboardModule -->
<g id="edge10" class="edge">
<title>CrowdSizeComponent&#45;&gt;DashboardModule</title>
<path fill="none" stroke="#000000" d="M1362,-122.0348C1362,-141.5762 1362,-170 1362,-170 1362,-170 3031.8529,-170 3031.8529,-170"/>
<polygon fill="#000000" stroke="#000000" points="3031.8529,-173.5001 3041.8529,-170 3031.8528,-166.5001 3031.8529,-173.5001"/>
</g>
<!-- CurrentCrowdSizeComponent -->
<g id="node12" class="node">
<title>CurrentCrowdSizeComponent</title>
<polygon fill="#ffffb3" stroke="#000000" points="1272.3018,-122 1085.6982,-122 1085.6982,-86 1272.3018,-86 1272.3018,-122"/>
<text text-anchor="middle" x="1179" y="-99.8" font-family="Times,serif" font-size="14.00" fill="#000000">CurrentCrowdSizeComponent</text>
</g>
<!-- CurrentCrowdSizeComponent&#45;&gt;DashboardModule -->
<g id="edge11" class="edge">
<title>CurrentCrowdSizeComponent&#45;&gt;DashboardModule</title>
<path fill="none" stroke="#000000" d="M1179,-122.1289C1179,-142.5724 1179,-173 1179,-173 1179,-173 3031.8071,-173 3031.8071,-173"/>
<polygon fill="#000000" stroke="#000000" points="3031.8072,-176.5001 3041.8071,-173 3031.8071,-169.5001 3031.8072,-176.5001"/>
</g>
<!-- DashboardComponent -->
<g id="node13" class="node">
<title>DashboardComponent</title>
<polygon fill="#ffffb3" stroke="#000000" points="1067.9734,-122 926.0266,-122 926.0266,-86 1067.9734,-86 1067.9734,-122"/>
<text text-anchor="middle" x="997" y="-99.8" font-family="Times,serif" font-size="14.00" fill="#000000">DashboardComponent</text>
</g>
<!-- DashboardComponent&#45;&gt;DashboardModule -->
<g id="edge12" class="edge">
<title>DashboardComponent&#45;&gt;DashboardModule</title>
<path fill="none" stroke="#000000" d="M997,-122.0449C997,-143.6623 997,-177 997,-177 997,-177 3031.8331,-177 3031.8331,-177"/>
<polygon fill="#000000" stroke="#000000" points="3031.8331,-180.5001 3041.8331,-177 3031.8331,-173.5001 3031.8331,-180.5001"/>
</g>
<!-- DealButtonsComponent -->
<g id="node14" class="node">
<title>DealButtonsComponent</title>
<polygon fill="#ffffb3" stroke="#000000" points="907.8215,-122 756.1785,-122 756.1785,-86 907.8215,-86 907.8215,-122"/>
<text text-anchor="middle" x="832" y="-99.8" font-family="Times,serif" font-size="14.00" fill="#000000">DealButtonsComponent</text>
</g>
<!-- DealButtonsComponent&#45;&gt;DashboardModule -->
<g id="edge13" class="edge">
<title>DealButtonsComponent&#45;&gt;DashboardModule</title>
<path fill="none" stroke="#000000" d="M832,-122.0109C832,-144.4852 832,-180 832,-180 832,-180 3031.8677,-180 3031.8677,-180"/>
<polygon fill="#000000" stroke="#000000" points="3031.8677,-183.5001 3041.8677,-180 3031.8677,-176.5001 3031.8677,-183.5001"/>
</g>
<!-- DealDashboardComponent -->
<g id="node15" class="node">
<title>DealDashboardComponent</title>
<polygon fill="#ffffb3" stroke="#000000" points="738.4003,-122 569.5997,-122 569.5997,-86 738.4003,-86 738.4003,-122"/>
<text text-anchor="middle" x="654" y="-99.8" font-family="Times,serif" font-size="14.00" fill="#000000">DealDashboardComponent</text>
</g>
<!-- DealDashboardComponent&#45;&gt;DashboardModule -->
<g id="edge14" class="edge">
<title>DealDashboardComponent&#45;&gt;DashboardModule</title>
<path fill="none" stroke="#000000" d="M654,-122.1532C654,-145.7566 654,-184 654,-184 654,-184 3031.7916,-184 3031.7916,-184"/>
<polygon fill="#000000" stroke="#000000" points="3031.7916,-187.5001 3041.7916,-184 3031.7916,-180.5001 3031.7916,-187.5001"/>
</g>
<!-- FootTrafficComponent -->
<g id="node16" class="node">
<title>FootTrafficComponent</title>
<polygon fill="#ffffb3" stroke="#000000" points="551.8599,-122 406.1401,-122 406.1401,-86 551.8599,-86 551.8599,-122"/>
<text text-anchor="middle" x="479" y="-99.8" font-family="Times,serif" font-size="14.00" fill="#000000">FootTrafficComponent</text>
</g>
<!-- FootTrafficComponent&#45;&gt;DashboardModule -->
<g id="edge15" class="edge">
<title>FootTrafficComponent&#45;&gt;DashboardModule</title>
<path fill="none" stroke="#000000" d="M479,-122.2267C479,-146.9318 479,-188 479,-188 479,-188 3031.6568,-188 3031.6568,-188"/>
<polygon fill="#000000" stroke="#000000" points="3031.6568,-191.5001 3041.6568,-188 3031.6567,-184.5001 3031.6568,-191.5001"/>
</g>
<!-- GenderDemographicsComponent -->
<g id="node17" class="node">
<title>GenderDemographicsComponent</title>
<polygon fill="#ffffb3" stroke="#000000" points="388.1657,-122 183.8343,-122 183.8343,-86 388.1657,-86 388.1657,-122"/>
<text text-anchor="middle" x="286" y="-99.8" font-family="Times,serif" font-size="14.00" fill="#000000">GenderDemographicsComponent</text>
</g>
<!-- GenderDemographicsComponent&#45;&gt;DashboardModule -->
<g id="edge16" class="edge">
<title>GenderDemographicsComponent&#45;&gt;DashboardModule</title>
<path fill="none" stroke="#000000" d="M286,-122.0265C286,-147.5093 286,-191 286,-191 286,-191 3031.8811,-191 3031.8811,-191"/>
<polygon fill="#000000" stroke="#000000" points="3031.8811,-194.5001 3041.8811,-191 3031.881,-187.5001 3031.8811,-194.5001"/>
</g>
<!-- SlidePanelComponent -->
<g id="node18" class="node">
<title>SlidePanelComponent</title>
<polygon fill="#ffffb3" stroke="#000000" points="165.7134,-122 24.2866,-122 24.2866,-86 165.7134,-86 165.7134,-122"/>
<text text-anchor="middle" x="95" y="-99.8" font-family="Times,serif" font-size="14.00" fill="#000000">SlidePanelComponent</text>
</g>
<!-- SlidePanelComponent&#45;&gt;DashboardModule -->
<g id="edge17" class="edge">
<title>SlidePanelComponent&#45;&gt;DashboardModule</title>
<path fill="none" stroke="#000000" d="M95,-122.4152C95,-149.0057 95,-195 95,-195 95,-195 3031.5947,-195 3031.5947,-195"/>
<polygon fill="#000000" stroke="#000000" points="3031.5948,-198.5001 3041.5947,-195 3031.5947,-191.5001 3031.5948,-198.5001"/>
</g>
<!-- DealDialogComponent -->
<g id="node19" class="node">
<title>DealDialogComponent</title>
<polygon fill="#ffffb3" stroke="#000000" points="1975.8613,-122 1830.1387,-122 1830.1387,-86 1975.8613,-86 1975.8613,-122"/>
<text text-anchor="middle" x="1903" y="-99.8" font-family="Times,serif" font-size="14.00" fill="#000000">DealDialogComponent</text>
</g>
<!-- DealDialogComponent&#45;&gt;DealsModule -->
<g id="edge19" class="edge">
<title>DealDialogComponent&#45;&gt;DealsModule</title>
<path fill="none" stroke="#000000" d="M1903,-122.1505C1903,-134.2708 1903,-148 1903,-148 1903,-148 3226,-148 3226,-148 3226,-148 3226,-151.7566 3226,-151.7566"/>
<polygon fill="#000000" stroke="#000000" points="3222.5001,-151.7566 3226,-161.7566 3229.5001,-151.7566 3222.5001,-151.7566"/>
</g>
<!-- NewDealComponent -->
<g id="node20" class="node">
<title>NewDealComponent</title>
<polygon fill="#ffffb3" stroke="#000000" points="1812.1867,-122 1677.8133,-122 1677.8133,-86 1812.1867,-86 1812.1867,-122"/>
<text text-anchor="middle" x="1745" y="-99.8" font-family="Times,serif" font-size="14.00" fill="#000000">NewDealComponent</text>
</g>
<!-- NewDealComponent&#45;&gt;DealsModule -->
<g id="edge20" class="edge">
<title>NewDealComponent&#45;&gt;DealsModule</title>
<path fill="none" stroke="#000000" d="M1745,-122.1467C1745,-135.7395 1745,-152 1745,-152 1745,-152 3203.1448,-152 3203.1448,-152 3203.1448,-152 3203.1448,-152.9793 3203.1448,-152.9793"/>
<polygon fill="#000000" stroke="#000000" points="3199.6449,-151.793 3203.1448,-161.793 3206.6449,-151.7931 3199.6449,-151.793"/>
</g>
<!-- LocationEditComponent -->
<g id="node21" class="node">
<title>LocationEditComponent</title>
<polygon fill="#ffffb3" stroke="#000000" points="2342.4298,-122 2187.5702,-122 2187.5702,-86 2342.4298,-86 2342.4298,-122"/>
<text text-anchor="middle" x="2265" y="-99.8" font-family="Times,serif" font-size="14.00" fill="#000000">LocationEditComponent</text>
</g>
<!-- LocationEditComponent&#45;&gt;LocationModule -->
<g id="edge22" class="edge">
<title>LocationEditComponent&#45;&gt;LocationModule</title>
<path fill="none" stroke="#000000" d="M2265,-122.0579C2265,-126.4945 2265,-130 2265,-130 2265,-130 3328.751,-130 3328.751,-130 3328.751,-130 3328.751,-151.9489 3328.751,-151.9489"/>
<polygon fill="#000000" stroke="#000000" points="3325.2511,-151.9488 3328.751,-161.9489 3332.2511,-151.9489 3325.2511,-151.9488"/>
</g>
<!-- LocationScreenComponent -->
<g id="node22" class="node">
<title>LocationScreenComponent</title>
<polygon fill="#ffffb3" stroke="#000000" points="3001.6825,-122 2832.3175,-122 2832.3175,-86 3001.6825,-86 3001.6825,-122"/>
<text text-anchor="middle" x="2917" y="-99.8" font-family="Times,serif" font-size="14.00" fill="#000000">LocationScreenComponent</text>
</g>
<!-- LocationScreenComponent&#45;&gt;LocationModule -->
<g id="edge23" class="edge">
<title>LocationScreenComponent&#45;&gt;LocationModule</title>
<path fill="none" stroke="#000000" d="M2917,-122.0449C2917,-129.749 2917,-137 2917,-137 2917,-137 3297.9276,-137 3297.9276,-137 3297.9276,-137 3297.9276,-151.5146 3297.9276,-151.5146"/>
<polygon fill="#000000" stroke="#000000" points="3294.4277,-151.5145 3297.9276,-161.5146 3301.4277,-151.5146 3294.4277,-151.5145"/>
</g>
<!-- LocationTabComponent -->
<g id="node23" class="node">
<title>LocationTabComponent</title>
<polygon fill="#ffffb3" stroke="#000000" points="2814.3627,-122 2661.6373,-122 2661.6373,-86 2814.3627,-86 2814.3627,-122"/>
<text text-anchor="middle" x="2738" y="-99.8" font-family="Times,serif" font-size="14.00" fill="#000000">LocationTabComponent</text>
</g>
<!-- LocationTabComponent&#45;&gt;LocationModule -->
<g id="edge24" class="edge">
<title>LocationTabComponent&#45;&gt;LocationModule</title>
<path fill="none" stroke="#000000" d="M2738,-122.0664C2738,-131.4587 2738,-141 2738,-141 2738,-141 3295.0663,-141 3295.0663,-141 3295.0663,-141 3295.0663,-151.8701 3295.0663,-151.8701"/>
<polygon fill="#000000" stroke="#000000" points="3291.5663,-151.8701 3295.0663,-161.8701 3298.5663,-151.8701 3291.5663,-151.8701"/>
</g>
<!-- MenuComponent -->
<g id="node24" class="node">
<title>MenuComponent</title>
<polygon fill="#ffffb3" stroke="#000000" points="2643.9916,-122 2530.0084,-122 2530.0084,-86 2643.9916,-86 2643.9916,-122"/>
<text text-anchor="middle" x="2587" y="-99.8" font-family="Times,serif" font-size="14.00" fill="#000000">MenuComponent</text>
</g>
<!-- MenuComponent&#45;&gt;LocationModule -->
<g id="edge25" class="edge">
<title>MenuComponent&#45;&gt;LocationModule</title>
<path fill="none" stroke="#000000" d="M2587,-122.1274C2587,-132.7109 2587,-144 2587,-144 2587,-144 3292.2049,-144 3292.2049,-144 3292.2049,-144 3292.2049,-151.5782 3292.2049,-151.5782"/>
<polygon fill="#000000" stroke="#000000" points="3288.705,-151.5781 3292.2049,-161.5782 3295.705,-151.5782 3288.705,-151.5781"/>
</g>
<!-- MenuDialogComponent -->
<g id="node25" class="node">
<title>MenuDialogComponent</title>
<polygon fill="#ffffb3" stroke="#000000" points="2512.094,-122 2359.906,-122 2359.906,-86 2512.094,-86 2512.094,-122"/>
<text text-anchor="middle" x="2436" y="-99.8" font-family="Times,serif" font-size="14.00" fill="#000000">MenuDialogComponent</text>
</g>
<!-- MenuDialogComponent&#45;&gt;LocationModule -->
<g id="edge26" class="edge">
<title>MenuDialogComponent&#45;&gt;LocationModule</title>
<path fill="none" stroke="#000000" d="M2436,-122.1679C2436,-124.4478 2436,-126 2436,-126 2436,-126 3342.7321,-126 3342.7321,-126 3342.7321,-126 3342.7321,-151.7181 3342.7321,-151.7181"/>
<polygon fill="#000000" stroke="#000000" points="3339.2322,-151.718 3342.7321,-161.7181 3346.2322,-151.7181 3339.2322,-151.718"/>
</g>
<!-- LocationService -->
<g id="node26" class="node">
<title>LocationService</title>
<ellipse fill="#fdb462" stroke="#000000" cx="2090" cy="-104" rx="74.1354" ry="18"/>
<text text-anchor="middle" x="2090" y="-99.8" font-family="Times,serif" font-size="14.00" fill="#000000">LocationService</text>
</g>
<!-- LocationService&#45;&gt;LocationModule -->
<g id="edge28" class="edge">
<title>LocationService&#45;&gt;LocationModule</title>
<path fill="none" stroke="#000000" d="M2090,-122.2015C2090,-128.028 2090,-133 2090,-133 2090,-133 3314.77,-133 3314.77,-133 3314.77,-133 3314.77,-151.963 3314.77,-151.963"/>
<polygon fill="#000000" stroke="#000000" points="3311.2701,-151.963 3314.77,-161.963 3318.2701,-151.963 3311.2701,-151.963"/>
</g>
<!-- CrowdsButtonComponent -->
<g id="node27" class="node">
<title>CrowdsButtonComponent</title>
<polygon fill="#ffffb3" stroke="#000000" points="4646.4986,-198 4483.5014,-198 4483.5014,-162 4646.4986,-162 4646.4986,-198"/>
<text text-anchor="middle" x="4565" y="-175.8" font-family="Times,serif" font-size="14.00" fill="#000000">CrowdsButtonComponent</text>
</g>
<!-- CrowdsButtonComponent&#45;&gt;SharedModule -->
<g id="edge29" class="edge">
<title>CrowdsButtonComponent&#45;&gt;SharedModule</title>
<path fill="none" stroke="#000000" d="M4565,-161.8015C4565,-137.6437 4565,-98 4565,-98 4565,-98 3409.5138,-98 3409.5138,-98"/>
<polygon fill="#000000" stroke="#000000" points="3409.5138,-94.5001 3399.5138,-98 3409.5137,-101.5001 3409.5138,-94.5001"/>
</g>
<!-- CrowdsHeaderComponent -->
<g id="node28" class="node">
<title>CrowdsHeaderComponent</title>
<polygon fill="#ffffb3" stroke="#000000" points="4465.7921,-198 4300.2079,-198 4300.2079,-162 4465.7921,-162 4465.7921,-198"/>
<text text-anchor="middle" x="4383" y="-175.8" font-family="Times,serif" font-size="14.00" fill="#000000">CrowdsHeaderComponent</text>
</g>
<!-- CrowdsHeaderComponent&#45;&gt;SharedModule -->
<g id="edge30" class="edge">
<title>CrowdsHeaderComponent&#45;&gt;SharedModule</title>
<path fill="none" stroke="#000000" d="M4383,-161.9092C4383,-138.8672 4383,-102 4383,-102 4383,-102 3409.4757,-102 3409.4757,-102"/>
<polygon fill="#000000" stroke="#000000" points="3409.4758,-98.5001 3399.4757,-102 3409.4757,-105.5001 3409.4758,-98.5001"/>
</g>
<!-- CrowdsNavbarComponent -->
<g id="node29" class="node">
<title>CrowdsNavbarComponent</title>
<polygon fill="#ffffb3" stroke="#000000" points="4831.0772,-198 4664.9228,-198 4664.9228,-162 4831.0772,-162 4831.0772,-198"/>
<text text-anchor="middle" x="4748" y="-175.8" font-family="Times,serif" font-size="14.00" fill="#000000">CrowdsNavbarComponent</text>
</g>
<!-- CrowdsNavbarComponent&#45;&gt;SharedModule -->
<g id="edge31" class="edge">
<title>CrowdsNavbarComponent&#45;&gt;SharedModule</title>
<path fill="none" stroke="#000000" d="M4748,-161.7616C4748,-136.5171 4748,-94 4748,-94 4748,-94 3409.3449,-94 3409.3449,-94"/>
<polygon fill="#000000" stroke="#000000" points="3409.345,-90.5001 3399.3449,-94 3409.3449,-97.5001 3409.345,-90.5001"/>
</g>
<!-- ConfirmSignupComponent -->
<g id="node33" class="node">
<title>ConfirmSignupComponent</title>
<polygon fill="#ffffb3" stroke="#000000" points="6195.4452,-122 6026.5548,-122 6026.5548,-86 6195.4452,-86 6195.4452,-122"/>
<text text-anchor="middle" x="6111" y="-99.8" font-family="Times,serif" font-size="14.00" fill="#000000">ConfirmSignupComponent</text>
</g>
<!-- ConfirmSignupComponent&#45;&gt;SignupModule -->
<g id="edge35" class="edge">
<title>ConfirmSignupComponent&#45;&gt;SignupModule</title>
<path fill="none" stroke="#000000" d="M6111,-122.0265C6111,-147.5093 6111,-191 6111,-191 6111,-191 5491.6534,-191 5491.6534,-191"/>
<polygon fill="#000000" stroke="#000000" points="5491.6534,-187.5001 5481.6534,-191 5491.6534,-194.5001 5491.6534,-187.5001"/>
</g>
<!-- CredentialsComponent -->
<g id="node34" class="node">
<title>CredentialsComponent</title>
<polygon fill="#ffffb3" stroke="#000000" points="6008.5898,-122 5863.4102,-122 5863.4102,-86 6008.5898,-86 6008.5898,-122"/>
<text text-anchor="middle" x="5936" y="-99.8" font-family="Times,serif" font-size="14.00" fill="#000000">CredentialsComponent</text>
</g>
<!-- CredentialsComponent&#45;&gt;SignupModule -->
<g id="edge36" class="edge">
<title>CredentialsComponent&#45;&gt;SignupModule</title>
<path fill="none" stroke="#000000" d="M5936,-122.1532C5936,-145.7566 5936,-184 5936,-184 5936,-184 5491.7048,-184 5491.7048,-184"/>
<polygon fill="#000000" stroke="#000000" points="5491.7048,-180.5001 5481.7048,-184 5491.7048,-187.5001 5491.7048,-180.5001"/>
</g>
<!-- CuisineTypeComponent -->
<g id="node35" class="node">
<title>CuisineTypeComponent</title>
<polygon fill="#ffffb3" stroke="#000000" points="5845.3766,-122 5692.6234,-122 5692.6234,-86 5845.3766,-86 5845.3766,-122"/>
<text text-anchor="middle" x="5769" y="-99.8" font-family="Times,serif" font-size="14.00" fill="#000000">CuisineTypeComponent</text>
</g>
<!-- CuisineTypeComponent&#45;&gt;SignupModule -->
<g id="edge37" class="edge">
<title>CuisineTypeComponent&#45;&gt;SignupModule</title>
<path fill="none" stroke="#000000" d="M5769,-122.0449C5769,-143.6623 5769,-177 5769,-177 5769,-177 5491.7255,-177 5491.7255,-177"/>
<polygon fill="#000000" stroke="#000000" points="5491.7255,-173.5001 5481.7255,-177 5491.7255,-180.5001 5491.7255,-173.5001"/>
</g>
<!-- LocationTypeComponent -->
<g id="node36" class="node">
<title>LocationTypeComponent</title>
<polygon fill="#ffffb3" stroke="#000000" points="5674.8627,-122 5515.1373,-122 5515.1373,-86 5674.8627,-86 5674.8627,-122"/>
<text text-anchor="middle" x="5595" y="-99.8" font-family="Times,serif" font-size="14.00" fill="#000000">LocationTypeComponent</text>
</g>
<!-- LocationTypeComponent&#45;&gt;SignupModule -->
<g id="edge38" class="edge">
<title>LocationTypeComponent&#45;&gt;SignupModule</title>
<path fill="none" stroke="#000000" d="M5595,-122.0348C5595,-141.5762 5595,-170 5595,-170 5595,-170 5491.7911,-170 5491.7911,-170"/>
<polygon fill="#000000" stroke="#000000" points="5491.7911,-166.5001 5481.7911,-170 5491.791,-173.5001 5491.7911,-166.5001"/>
</g>
<!-- MaxCapComponent -->
<g id="node37" class="node">
<title>MaxCapComponent</title>
<polygon fill="#ffffb3" stroke="#000000" points="5496.5436,-122 5367.4564,-122 5367.4564,-86 5496.5436,-86 5496.5436,-122"/>
<text text-anchor="middle" x="5432" y="-99.8" font-family="Times,serif" font-size="14.00" fill="#000000">MaxCapComponent</text>
</g>
<!-- MaxCapComponent&#45;&gt;SignupModule -->
<g id="edge39" class="edge">
<title>MaxCapComponent&#45;&gt;SignupModule</title>
<path fill="none" stroke="#000000" d="M5432,-122.0109C5432,-122.0109 5432,-151.855 5432,-151.855"/>
<polygon fill="#000000" stroke="#000000" points="5428.5001,-151.8549 5432,-161.855 5435.5001,-151.855 5428.5001,-151.8549"/>
</g>
<!-- ResendCodeComponent -->
<g id="node38" class="node">
<title>ResendCodeComponent</title>
<polygon fill="#ffffb3" stroke="#000000" points="5349.094,-122 5196.906,-122 5196.906,-86 5349.094,-86 5349.094,-122"/>
<text text-anchor="middle" x="5273" y="-99.8" font-family="Times,serif" font-size="14.00" fill="#000000">ResendCodeComponent</text>
</g>
<!-- ResendCodeComponent&#45;&gt;SignupModule -->
<g id="edge40" class="edge">
<title>ResendCodeComponent&#45;&gt;SignupModule</title>
<path fill="none" stroke="#000000" d="M5273,-122.0348C5273,-141.5762 5273,-170 5273,-170 5273,-170 5372.1277,-170 5372.1277,-170"/>
<polygon fill="#000000" stroke="#000000" points="5372.1277,-173.5001 5382.1277,-170 5372.1276,-166.5001 5372.1277,-173.5001"/>
</g>
<!-- SignupRoutingModule -->
<g id="node40" class="node">
<title>SignupRoutingModule</title>
<polygon fill="#8dd3c7" stroke="#000000" points="5173.3412,-122 5170.3412,-126 5149.3412,-126 5146.3412,-122 5028.6588,-122 5028.6588,-86 5173.3412,-86 5173.3412,-122"/>
<text text-anchor="middle" x="5101" y="-99.8" font-family="Times,serif" font-size="14.00" fill="#000000">SignupRoutingModule</text>
</g>
<!-- SignupRoutingModule&#45;&gt;SignupModule -->
<g id="edge42" class="edge">
<title>SignupRoutingModule&#45;&gt;SignupModule</title>
<path fill="none" stroke="#000000" d="M5101,-122.0449C5101,-143.6623 5101,-177 5101,-177 5101,-177 5372.0876,-177 5372.0876,-177"/>
<polygon fill="#000000" stroke="#000000" points="5372.0876,-180.5001 5382.0876,-177 5372.0875,-173.5001 5372.0876,-180.5001"/>
</g>
<!-- SignupService -->
<g id="node41" class="node">
<title>SignupService</title>
<ellipse fill="#fdb462" stroke="#000000" cx="4938" cy="-104" rx="67.2158" ry="18"/>
<text text-anchor="middle" x="4938" y="-99.8" font-family="Times,serif" font-size="14.00" fill="#000000">SignupService</text>
</g>
<!-- SignupService&#45;&gt;SignupModule -->
<g id="edge43" class="edge">
<title>SignupService&#45;&gt;SignupModule</title>
<path fill="none" stroke="#000000" d="M4938,-122.1532C4938,-145.7566 4938,-184 4938,-184 4938,-184 5372.3716,-184 5372.3716,-184"/>
<polygon fill="#000000" stroke="#000000" points="5372.3716,-187.5001 5382.3716,-184 5372.3715,-180.5001 5372.3716,-187.5001"/>
</g>
</g>
</svg>
